<svg width="32" height="32" viewBox="0 0 32 32" fill="none" xmlns="http://www.w3.org/2000/svg">
<rect x="1" y="1" width="30" height="30" fill="#122612"/>
<rect x="1" y="1" width="30" height="30" stroke="#D49E00" stroke-width="2"/>
<path d="M21.2506 22.75V21.25C21.2506 20.4544 20.9345 19.6913 20.3718 19.1287C19.8091 18.5661 19.046 18.25 18.2502 18.25H13.7497C12.954 18.25 12.1908 18.5661 11.6282 19.1287C11.0655 19.6913 10.7494 20.4544 10.7494 21.25V22.75M19.0003 12.25C19.0003 13.9069 17.657 15.25 16 15.25C14.3429 15.25 12.9996 13.9069 12.9996 12.25C12.9996 10.5931 14.3429 9.25 16 9.25C17.657 9.25 19.0003 10.5931 19.0003 12.25Z" stroke="#FFC500" stroke-width="2" stroke-linecap="round"/>
</svg>
